<?xml version="1.0" encoding="utf-8"?>
<!-- Generator: Adobe Illustrator 19.0.0, SVG Export Plug-In . SVG Version: 6.00 Build 0)  -->
<svg version="1.1" id="Layer_1" xmlns="http://www.w3.org/2000/svg" xmlns:xlink="http://www.w3.org/1999/xlink" x="0px" y="0px"
	 viewBox="0 0 293 293" style="enable-background:new 0 0 293 293;" xml:space="preserve">
<style type="text/css">
	.st0{fill:#2196F3;}
	.st1{opacity:0.2;fill:#2196F3;}
</style>
<polygon id="XMLID_19_" class="st0" points="4.2,298.4 4.2,298.4 4.2,298.4 "/>
<polygon id="XMLID_18_" class="st0" points="166.5,190.1 166.5,190.1 166.5,190.1 "/>
<path id="XMLID_15_" class="st0" d="M293.5,293.4H0.1V0h293.4V293.4z M18.5,275H275V18.5H18.5V275z"/>
<path id="XMLID_12_" class="st0" d="M100.7,129.8h11.5v44.9h-11.5v-1.2c0-1.4-1.5-2.1-2.7-1.3c-1.4,1-2.7,1.8-4.1,2.3
	c-2.3,0.9-4.7,1.4-7.3,1.4c-5.9,0-11-2.2-15.4-6.7c-4.3-4.5-6.5-10.1-6.5-16.8c0-6.9,2.1-12.6,6.3-17c4.2-4.4,9.3-6.6,15.2-6.6
	c2.7,0,5.3,0.5,7.7,1.5c1.4,0.6,2.8,1.4,4.1,2.3c1.1,0.8,2.6,0,2.6-1.4V129.8z M88.6,139.1c-3.6,0-6.5,1.2-8.9,3.7
	c-2.4,2.5-3.5,5.6-3.5,9.5c0,3.9,1.2,7.1,3.6,9.6c2.4,2.5,5.3,3.8,8.8,3.8c3.6,0,6.6-1.2,9-3.7c2.4-2.5,3.6-5.7,3.6-9.7
	c0-3.9-1.2-7.1-3.6-9.5C95.3,140.3,92.3,139.1,88.6,139.1z"/>
<path id="XMLID_9_" class="st0" d="M132.2,129.8v1.4c0,1.3,1.5,2.2,2.6,1.4c1.3-1,2.7-1.7,4.1-2.3c2.4-1,5-1.5,7.7-1.5
	c6,0,11.1,2.2,15.2,6.6c4.2,4.4,6.3,10.1,6.3,17c0,6.7-2.2,12.3-6.5,16.8c-4.3,4.5-9.4,6.7-15.4,6.7c-2.6,0-5.1-0.5-7.4-1.4
	c-1.4-0.6-2.8-1.3-4.1-2.3c-1.1-0.8-2.7,0-2.7,1.3v17.6h-11.4v-61.3H132.2z M144.3,139.1c-3.6,0-6.6,1.2-9,3.6
	c-2.4,2.4-3.6,5.6-3.6,9.5c0,4,1.2,7.2,3.6,9.7c2.4,2.5,5.4,3.7,9,3.7c3.5,0,6.5-1.3,8.9-3.8c2.4-2.5,3.6-5.7,3.6-9.6
	c0-3.8-1.2-7-3.5-9.5C150.8,140.3,147.9,139.1,144.3,139.1z"/>
<path id="XMLID_7_" class="st0" d="M185.3,132.4l-9.1-19.1h11.9l28.7,61.3H205l-11.6-24.8c-0.6-1.3-2.5-1.3-3,0.1l-10.4,24.7h-11.7
	l17.1-40.8C185.5,133.3,185.5,132.8,185.3,132.4z"/>
<path id="XMLID_5_" class="st0" d="M223.1,129.8h11.5v1.2c0,1.3,1.5,2.1,2.6,1.4c1.6-1.1,3.1-2,4.5-2.5c2.1-0.8,4.3-1.3,6.5-1.3
	c4.5,0,8.4,1.6,11.6,4.7c2.7,2.6,4,6.5,4,11.7v29.6h-11.4v-19.6c0-5.4-0.2-8.9-0.7-10.7c-0.5-1.8-1.3-3.1-2.6-4s-2.7-1.4-4.5-1.4
	c-2.3,0-4.3,0.8-6,2.3c-1.7,1.5-2.8,3.6-3.5,6.3c-0.3,1.4-0.5,4.4-0.5,9.1v18h-11.5V129.8z"/>
<path id="XMLID_4_" class="st0" d="M38.2,127.9v-14.6h11.3v14.6c0,0.9,0.7,1.7,1.7,1.7H57v9.8h-6c-0.9,0-1.7,0.7-1.7,1.7V162
	c0,1.4,1.1,2.5,2.5,2.5H57v9.6H44.2c-3.3,0-6-2.7-6-6v-27c0-0.9-0.7-1.7-1.7-1.7h-6.6v-9.8h6.6C37.4,129.6,38.2,128.9,38.2,127.9z"
	/>
<path id="XMLID_2_" class="st1" d="M168.2,175.9h11.7l10.4,24.7c0.6,1.3,2.4,1.4,3,0.1l11.6-24.8h11.8l-28.7,61.3h-11.9l9.4-19.8
	L168.2,175.9z"/>
</svg>
