<svg viewBox="0 0 256 319" xmlns="http://www.w3.org/2000/svg">
  <defs>
    <linearGradient id="a" x1="0%" y1="0%" x2="100%" y2="100%">
      <stop offset="0%" stop-color="#FF4785"/>
      <stop offset="100%" stop-color="#FC521F"/>
    </linearGradient>
  </defs>
  <path fill="url(#a)" d="M213.4 0l2.3 55.5-21.8-18.9-23.7 19.3 3.4-56.9H21.6C9.7 0 0 9.8 0 21.8v274.7c0 12 9.7 21.8 21.6 21.8h212.8c11.9 0 21.6-9.8 21.6-21.8V20.5L213.4 0z"/>
  <path fill="#FFF" d="M188.6 80.7c0-3.7-1.5-5.8-5.7-5.8h-12.7c-4 0-6.3 2.1-6.3 6v72.7c0 4.2-3.5 6-8.4 6-4.5 0-7-1.7-7-5.7V80.7c0-3.7-2.3-5.8-6.3-5.8h-12.7c-4.3 0-5.8 2.1-5.8 5.8v79.2c0 24.4 16.7 35.5 39.7 35.5 23.4 0 40.2-11.3 40.2-35.8V80.7h-15zm-81.5-5.8c-4.2 0-6 2-6 5.7v3.7c-5.5-6.7-13.5-10.2-23.9-10.2-22.4 0-40.2 17.7-40.2 44.9 0 27 17.8 44.6 40.2 44.6 10.2 0 18.2-3.5 23.9-10v3.5c0 3.7 1.8 5.8 6 5.8h12.7c4.3 0 5.8-2.1 5.8-5.8v-76c0-3.7-1.5-6-5.8-6h-12.7zm-6 65.3c-4.2 5.5-10.2 8.7-17.4 8.7-12 0-20.4-9.5-20.4-24.1 0-14.4 8.4-24 20.4-24 7.2 0 13.2 3.2 17.4 8.7v30.7z"/>
</svg>
