<svg id="Layer_1" data-name="Layer 1" xmlns="http://www.w3.org/2000/svg" viewBox="0 0 800 600"><defs><style>.cls-1{fill:none;stroke-width:10px;}.cls-1,.cls-5{stroke:#2196f3;stroke-miterlimit:10;}.cls-2,.cls-5{fill:#fff;}.cls-3,.cls-4{fill:#2196f3;}.cls-4{font-size:150px;font-family:MyriadPro-Regular, Myriad Pro;}.cls-5{stroke-width:3px;}</style></defs><title>Artboard 1</title><circle class="cls-1" cx="399.36" cy="299.45" r="150"/><rect class="cls-2" x="541.19" y="291.95" width="15.83" height="7.49"/><path class="cls-3" d="M583.84,259.69l-15.29,17.53c-.66-5.06-1.55-10.06-2.65-15Z"/><path class="cls-3" d="M568.55,277.22l-18,20.69-21.39-13.7a128.18,128.18,0,0,0-3-16.27l39.76-5.69C567,267.16,567.89,272.16,568.55,277.22Z"/><path class="cls-3" d="M565.9,262.25l-39.76,5.69C512,211.43,460.82,169.45,400,169.45h-.64v-40H400C481,129.45,548.89,186.34,565.9,262.25Z"/><path class="cls-3" d="M529.11,284.21l-21.32-13.65,18.35-2.62A128.18,128.18,0,0,1,529.11,284.21Z"/><text class="cls-4" transform="translate(321.56 349.01)">90</text><circle class="cls-5" cx="478.44" cy="255.83" r="7.48"/></svg>