<svg id="Layer_1" data-name="Layer 1" xmlns="http://www.w3.org/2000/svg" viewBox="0 0 800 600"><defs><style>.cls-1{fill:#2196f3;}</style></defs><title>Change</title><g id="TAPYN"><g id="CONTACT"><g id="change-PHOTO"><g id="icon-camera"><path id="Camera" class="cls-1" d="M472,247.33H454.64a18.14,18.14,0,0,1-15-7.82l-7.31-10.71a18.14,18.14,0,0,0-15-7.81H382.63a18.13,18.13,0,0,0-15,7.81l-7.31,10.71a18.15,18.15,0,0,1-15,7.82H328a17.78,17.78,0,0,0-18,17.56v96.57A17.79,17.79,0,0,0,328,379H472a17.79,17.79,0,0,0,18-17.56V264.89A17.78,17.78,0,0,0,472,247.33ZM400,361.46c-29.78,0-54-23.63-54-52.68s24.22-52.67,54-52.67,54,23.63,54,52.67S429.78,361.46,400,361.46ZM400,269a40,40,0,1,0,40,40A40,40,0,0,0,400,269Zm23.33,44.67H404.67v18.67h-9.34V313.68H376.66v-9.34h18.67V285.67h9.34v18.67h18.67Z"/></g></g></g></g><path class="cls-1" d="M599.35,255.88l-17,19.46c-.73-5.62-1.72-11.16-2.94-16.61Z"/><path class="cls-1" d="M535.32,265l44.13-6.31c1.22,5.45,2.21,11,2.94,16.61l-20,23-23.74-15.2A143,143,0,0,0,535.32,265Z"/><path class="cls-1" d="M538.61,283.09,515,267.94,535.32,265A143,143,0,0,1,538.61,283.09Z"/><path class="cls-1" d="M395.32,155.73C315.76,155.73,251,220.44,251,300s64.71,144.28,144.28,144.28S539.6,379.56,539.6,300v-.3l22.74.22,21.65.21c-.08,104-84.68,188.54-188.67,188.54S206.65,404,206.65,300s84.64-188.67,188.67-188.67c89.86,0,165.24,63.14,184.12,147.38L535.32,265C519.65,202.32,462.82,155.73,395.32,155.73Z"/></svg>