<svg id="Layer_1" data-name="Layer 1" xmlns="http://www.w3.org/2000/svg" viewBox="0 0 800 600"><defs><style>.cls-1{fill:#ccc;}</style></defs><title>Check_disabled</title><path class="cls-1" d="M255.15,320.59c2.28,1.33,4.5,2.73,6.73,4.12s4.42,2.81,6.57,4.27,4.36,2.87,6.48,4.36l6.41,4.43c4.21,3,8.46,6,12.61,9.08s8.29,6.17,12.38,9.31,8.15,6.31,12.18,9.51,8,6.44,12,9.69,7.91,6.55,11.82,9.87l5.85,5c1.95,1.67,3.89,3.34,5.82,5l-24.51.35q5.87-7.16,11.86-14.2l6-7,6.07-7c4.07-4.62,8.14-9.25,12.28-13.8s8.29-9.1,12.46-13.64,8.39-9,12.65-13.45,8.53-8.88,12.82-13.29,8.64-8.78,13-13.1,8.78-8.64,13.21-12.92l6.68-6.39,6.74-6.34q6.78-6.3,13.64-12.51t13.87-12.3q7-6.09,14.13-12.06c4.76-4,9.55-7.92,14.41-11.79s9.74-7.73,14.74-11.48,10-7.49,15.11-11.13,10.3-7.2,15.68-10.59c-3.08,5.56-6.34,10.95-9.69,16.25s-6.77,10.54-10.26,15.71-7,10.29-10.63,15.36-7.27,10.07-11,15-7.45,9.89-11.24,14.78-7.63,9.73-11.5,14.54-7.79,9.58-11.73,14.33l-5.95,7.08-6,7c-4,4.66-8.06,9.32-12.16,13.92s-8.21,9.18-12.34,13.74-8.32,9.07-12.55,13.55-8.47,8.94-12.71,13.39-8.57,8.84-12.91,13.2-8.71,8.71-13.09,13l-6.62,6.45-6.68,6.39q-6.71,6.36-13.51,12.64l-13.72,12.61-10.79-12.27c-1.69-1.92-3.36-3.87-5-5.82l-5-5.85q-5-5.87-9.87-11.82t-9.69-12q-4.8-6-9.51-12.18t-9.31-12.38c-3.08-4.15-6.06-8.4-9.08-12.61l-4.43-6.41c-1.49-2.13-2.91-4.32-4.36-6.48s-2.85-4.38-4.27-6.57S256.48,322.87,255.15,320.59Z"/></svg>