<svg id="Layer_1" data-name="Layer 1" xmlns="http://www.w3.org/2000/svg" viewBox="0 0 160 160"><defs><style>.cls-1{fill:#030303;}</style></defs><title>Artboard 3</title><path class="cls-1" d="M143.45,26.58a20.29,20.29,0,1,0-40.57,0V74.35c-1.11-.43-2.26-.78-3.4-1.15l-1.62-.64,0,.08A63.16,63.16,0,0,0,79.77,70h0c-1.69.12-14.05,1.06-22.63,3.86V26.58a20.29,20.29,0,0,0-40.57,0v52.7a63,63,0,0,0,6.12,27,62.64,62.64,0,0,0-6.12,27.13,20.27,20.27,0,0,0,40,4.76A63,63,0,0,0,80,142.73c8.79,0,18.21-3,23.38-4.88.08.35.22.66.32,1a14.89,14.89,0,0,0,2.22,5.2l.15.23.06.1h0a20.26,20.26,0,0,0,37.32-11,62.2,62.2,0,0,0-.35-6.42h0l0-.12a62.33,62.33,0,0,0-1.49-8.45l-.12-.68a45.62,45.62,0,0,0-4.06-11.56,62.72,62.72,0,0,0,6-26.91Zm-106.62,120a13.18,13.18,0,0,1-13.17-13.17,55.71,55.71,0,0,1,3.39-19.24,63.9,63.9,0,0,0,22.77,20.91A13.14,13.14,0,0,1,36.83,146.59Zm43.28-37.31c7.3-.17,14.62,6.66,14.7,6.73a27,27,0,0,1,7.82,14.51c-6.39,2.54-15.37,5.1-22.63,5.1A56.4,56.4,0,0,1,23.67,79.28V26.58a13.17,13.17,0,0,1,26.33,0v52.7a30,30,0,0,0,30,30Zm43.06,37.31a13.14,13.14,0,0,1-12.38-8.84,20.61,20.61,0,0,1-.7-4.83,33.86,33.86,0,0,0-10.38-22.08c-.39-.37-9.51-9-19.71-8.67h0A22.9,22.9,0,0,1,57.23,81.37c5.38-2.32,16.5-3.84,22.78-4.29a56.08,56.08,0,0,1,15.7,2.27l8.52,3.38c.72.28,1.42.61,2.13.93A56.5,56.5,0,0,1,134.66,120l1.4,7.93c.17,1.8.28,3.63.28,5.47A13.18,13.18,0,0,1,123.17,146.59Zm13.17-67.31A55.7,55.7,0,0,1,133,98.37c-5.34-8.1-13-16.19-23-20.89V26.58a13.17,13.17,0,1,1,26.33,0Z"/></svg>